<svg width="93" height="32" viewBox="0 0 93 32" fill="none" xmlns="http://www.w3.org/2000/svg"><path d="M47.5868 1.49837C43.8276 0.546322 40.2228 6.53176 38.2562 14.5418C36.2895 22.5518 36.705 29.5536 40.4642 30.5056C44.2233 31.4577 47.8281 25.4723 49.7948 17.4622C51.7614 9.45217 51.3419 2.45041 47.5868 1.49837ZM59.3944 16C58.9552 24.8376 52.165 32 43.2301 32C34.2952 32 28.2173 24.8376 28.6565 16C29.0957 7.16244 35.8859 0 44.8208 0C53.7557 0 59.8336 7.16244 59.3944 16ZM80.1726 1.49837C76.4134 0.546322 72.8086 6.53176 70.838 14.5418C68.8714 22.5518 69.2908 29.5536 73.046 30.5056C76.8052 31.4577 80.41 25.4723 82.3806 17.4622C84.3472 9.45217 83.9277 2.45041 80.1726 1.49837ZM91.9802 16C91.541 24.8376 84.7508 32 75.8159 32C66.881 32 60.8031 24.8376 61.2423 16C61.6816 7.16244 68.4717 0 77.4066 0C86.3415 0 92.4194 7.16244 91.9802 16ZM27.1212 20.9651C26.8759 28.0633 20.3191 31.9116 13.5646 31.9116C7.85067 31.9156 2.50873 28.8064 0 26.9184L2.82133 18.9606L2.98753 19.0208C7.62512 26.0587 11.5663 30.9074 15.6895 30.5297C18.4158 30.2807 20.0342 28.5935 20.149 25.2513C20.3073 20.6036 16.8132 14.8391 3.66022 17.2172L3.46237 17.1449L9.38202 0.441877H29.2263L26.5633 7.95782H7.97333L6.22039 12.9028C16.7262 7.42355 27.3942 13.2041 27.1252 20.9651" fill="#F5F5EC"/></svg>