<svg xmlns="http://www.w3.org/2000/svg" width="73" height="68" viewBox="0 0 73 68" fill="none"><path d="M9.0977 1C8.72 4.53688 9.18524 7.44418 10.0182 9.82398C15.1083 24.358 38.6179 32.6035 68.3883 31.5387" stroke="#7DD1E4" stroke-width="1.22523" stroke-miterlimit="10" stroke-linecap="round"></path><path d="M1 40.0402C1 40.0402 23.3448 35.3206 27.4768 26.0548C31.6088 16.7891 35.5483 4.98438 40.1456 4.98438C44.7429 4.98438 46.96 15.2623 51.0813 30.9308C55.2 42.2181 69 40.0289 69 40.0289" stroke="url(#paint0_linear_3670_57506)" stroke-width="1.22523" stroke-miterlimit="10" stroke-linecap="round"></path><path d="M7.02953 53.6215H4.07558L3.60205 55.0195H1.58389L4.44764 47.1048H6.68001L9.54377 55.0195H7.50306L7.02953 53.6215ZM6.53344 52.1332L5.55255 49.2357L4.58294 52.1332H6.53344ZM13.2791 55.0985C12.7003 55.0985 12.1817 55.0045 11.7232 54.8166C11.2647 54.6287 10.8964 54.3506 10.6183 53.9823C10.3477 53.614 10.2049 53.1705 10.1899 52.6519H12.2418C12.2719 52.945 12.3734 53.1705 12.5462 53.3283C12.7191 53.4787 12.9446 53.5538 13.2227 53.5538C13.5083 53.5538 13.7338 53.4899 13.8992 53.3622C14.0646 53.2269 14.1472 53.0427 14.1472 52.8097C14.1472 52.6143 14.0796 52.4527 13.9443 52.3249C13.8165 52.1971 13.6549 52.0919 13.4595 52.0092C13.2716 51.9265 13.001 51.8326 12.6477 51.7273C12.1366 51.5695 11.7194 51.4117 11.3962 51.2538C11.073 51.096 10.7949 50.863 10.5619 50.5548C10.3289 50.2466 10.2124 49.8445 10.2124 49.3484C10.2124 48.6118 10.4792 48.0368 11.0129 47.6234C11.5466 47.2025 12.2418 46.992 13.0987 46.992C13.9706 46.992 14.6734 47.2025 15.2071 47.6234C15.7407 48.0368 16.0263 48.6156 16.0639 49.3597H13.9781C13.9631 49.1041 13.8691 48.9049 13.6963 48.7621C13.5234 48.6118 13.3016 48.5366 13.0311 48.5366C12.798 48.5366 12.6101 48.6005 12.4673 48.7283C12.3245 48.8486 12.2531 49.0252 12.2531 49.2582C12.2531 49.5138 12.3734 49.7129 12.6139 49.8558C12.8544 49.9986 13.2302 50.1527 13.7414 50.318C14.2525 50.4909 14.6659 50.6563 14.9816 50.8141C15.3048 50.9719 15.5829 51.2012 15.8159 51.5019C16.0489 51.8025 16.1654 52.1896 16.1654 52.6631C16.1654 53.1141 16.0489 53.5238 15.8159 53.8921C15.5904 54.2604 15.2597 54.5535 14.8237 54.7715C14.3878 54.9895 13.8729 55.0985 13.2791 55.0985ZM24.1392 47.1048L21.3995 52.4038V55.0195H19.4715V52.4038L16.7318 47.1048H18.919L20.4524 50.4195L21.9745 47.1048H24.1392ZM33.8793 47.1048V55.0195H31.9514V50.2729L30.1812 55.0195H28.6253L26.844 50.2616V55.0195H24.916V47.1048H27.1935L29.4146 52.5842L31.6131 47.1048H33.8793ZM44.2291 47.1048V55.0195H42.3011V50.2729L40.531 55.0195H38.9751L37.1937 50.2616V55.0195H35.2657V47.1048H37.5432L39.7643 52.5842L41.9629 47.1048H44.2291ZM47.5434 48.6494V50.2504H50.1253V51.7386H47.5434V53.4749H50.4636V55.0195H45.6155V47.1048H50.4636V48.6494H47.5434ZM57.4089 47.1048V48.6494H55.3118V55.0195H53.3839V48.6494H51.2868V47.1048H57.4089ZM62.4128 55.0195L60.7667 52.0318H60.3044V55.0195H58.3765V47.1048H61.6123C62.2362 47.1048 62.7661 47.2137 63.202 47.4317C63.6455 47.6497 63.9762 47.9503 64.1942 48.3337C64.4122 48.7095 64.5211 49.1304 64.5211 49.5964C64.5211 50.1226 64.3708 50.5924 64.0702 51.0058C63.777 51.4192 63.3411 51.7123 62.7623 51.8852L64.5888 55.0195H62.4128ZM60.3044 50.6675H61.4996C61.8528 50.6675 62.1159 50.5811 62.2888 50.4082C62.4692 50.2353 62.5594 49.9911 62.5594 49.6754C62.5594 49.3747 62.4692 49.1379 62.2888 48.9651C62.1159 48.7922 61.8528 48.7057 61.4996 48.7057H60.3044V50.6675ZM72.5187 47.1048L69.779 52.4038V55.0195H67.851V52.4038L65.1113 47.1048H67.2986L68.8319 50.4195L70.354 47.1048H72.5187Z" fill="white"></path><path d="M22.5744 59.0629L20.4122 64.793H19.549L17.3869 59.0629H18.1843L19.9847 64.0037L21.7851 59.0629H22.5744ZM24.1428 59.6712V61.5868H26.2309V62.2033H24.1428V64.1764H26.4776V64.793H23.3947V59.0547H26.4776V59.6712H24.1428ZM32.1147 64.793H31.3666L28.3577 60.2303V64.793H27.6096V59.0547H28.3577L31.3666 63.6091V59.0547H32.1147V64.793ZM36.9169 59.0629V59.6712H35.3549V64.793H34.6067V59.6712H33.0365V59.0629H36.9169ZM38.5694 59.0629V62.6884C38.5694 63.1981 38.6927 63.5763 38.9394 63.8229C39.1915 64.0695 39.5395 64.1928 39.9834 64.1928C40.4219 64.1928 40.7644 64.0695 41.0111 63.8229C41.2632 63.5763 41.3893 63.1981 41.3893 62.6884V59.0629H42.1374V62.6802C42.1374 63.157 42.0415 63.5598 41.8496 63.8887C41.6578 64.212 41.3975 64.4532 41.0686 64.6121C40.7453 64.771 40.3808 64.8505 39.9752 64.8505C39.5697 64.8505 39.2024 64.771 38.8736 64.6121C38.5502 64.4532 38.2926 64.212 38.1008 63.8887C37.9145 63.5598 37.8213 63.157 37.8213 62.6802V59.0629H38.5694ZM46.4025 64.793L45.0378 62.45H44.1335V64.793H43.3854V59.0629H45.2351C45.6681 59.0629 46.0325 59.1369 46.3285 59.2849C46.6299 59.4328 46.8547 59.6329 47.0026 59.885C47.1506 60.1371 47.2246 60.4248 47.2246 60.7482C47.2246 61.1428 47.1095 61.4908 46.8793 61.7923C46.6546 62.0937 46.3148 62.2938 45.8599 62.3924L47.2986 64.793H46.4025ZM44.1335 61.8498H45.2351C45.6407 61.8498 45.9449 61.7512 46.1476 61.5539C46.3504 61.3511 46.4518 61.0825 46.4518 60.7482C46.4518 60.4084 46.3504 60.1453 46.1476 59.959C45.9503 59.7726 45.6462 59.6795 45.2351 59.6795H44.1335V61.8498ZM49.1352 59.6712V61.5868H51.2233V62.2033H49.1352V64.1764H51.47V64.793H48.3871V59.0547H51.47V59.6712H49.1352ZM54.4188 64.8505C54.0406 64.8505 53.7008 64.7847 53.3994 64.6532C53.1034 64.5162 52.8705 64.3298 52.7006 64.0942C52.5307 63.853 52.443 63.5763 52.4375 63.2638H53.235C53.2624 63.5324 53.372 63.7599 53.5638 63.9462C53.7611 64.1271 54.0461 64.2175 54.4188 64.2175C54.7751 64.2175 55.0546 64.1298 55.2574 63.9544C55.4656 63.7736 55.5698 63.5434 55.5698 63.2638C55.5698 63.0446 55.5095 62.8665 55.3889 62.7295C55.2683 62.5925 55.1176 62.4883 54.9367 62.4171C54.7559 62.3458 54.512 62.2691 54.2051 62.1869C53.8269 62.0882 53.5227 61.9896 53.2925 61.8909C53.0678 61.7923 52.8733 61.6388 52.7088 61.4306C52.5499 61.2168 52.4704 60.9318 52.4704 60.5756C52.4704 60.2632 52.5499 59.9864 52.7088 59.7452C52.8678 59.5041 53.0897 59.3177 53.3747 59.1862C53.6652 59.0547 53.9968 58.9889 54.3695 58.9889C54.9066 58.9889 55.3451 59.1232 55.6849 59.3917C56.0301 59.6603 56.2247 60.0165 56.2686 60.4605H55.4464C55.419 60.2412 55.3039 60.0494 55.1012 59.885C54.8984 59.7151 54.6298 59.6301 54.2955 59.6301C53.9831 59.6301 53.7282 59.7123 53.5309 59.8768C53.3336 60.0357 53.235 60.2604 53.235 60.5509C53.235 60.7592 53.2925 60.9291 53.4076 61.0606C53.5282 61.1921 53.6734 61.2935 53.8433 61.3648C54.0187 61.4306 54.2626 61.5073 54.575 61.595C54.9532 61.6991 55.2574 61.8032 55.4876 61.9074C55.7177 62.006 55.915 62.1622 56.0795 62.376C56.2439 62.5842 56.3261 62.8692 56.3261 63.231C56.3261 63.5105 56.2521 63.7736 56.1041 64.0202C55.9562 64.2668 55.7369 64.4669 55.4464 64.6203C55.156 64.7738 54.8134 64.8505 54.4188 64.8505Z" fill="white"></path><defs><linearGradient id="paint0_linear_3670_57506" x1="42.1917" y1="6.63879" x2="25.6981" y2="11.9903" gradientUnits="userSpaceOnUse"><stop stop-color="#74103C"></stop><stop offset="1" stop-color="#DCA65D"></stop></linearGradient></defs></svg>