<svg width="164" height="82" viewBox="0 0 164 82" fill="none" xmlns="http://www.w3.org/2000/svg">
<path d="M66.0023 40.6961C66.0023 41.5776 65.8903 42.4245 65.6633 43.2398C65.4363 44.055 65.1145 44.8155 64.6979 45.5241C64.2813 46.2328 63.7842 46.878 63.2067 47.4599C62.6292 48.0418 61.9856 48.5431 61.2759 48.9637C60.5663 49.3813 59.8049 49.704 58.9917 49.9316C58.1786 50.1591 57.3339 50.2715 56.4547 50.2715H50.6997V31.1179H56.4547C57.3339 31.1179 58.1786 31.2303 58.9917 31.4578C59.8049 31.6854 60.5663 32.008 61.2759 32.4257C61.9856 32.8434 62.6292 33.3447 63.2067 33.9295C63.7842 34.5113 64.2813 35.1595 64.6979 35.8653C65.1145 36.5739 65.4363 37.3344 65.6633 38.1496C65.8874 38.9649 66.0023 39.8147 66.0023 40.6961ZM62.1781 40.6961C62.1781 39.904 62.0287 39.1607 61.7328 38.4665C61.434 37.7723 61.026 37.1644 60.5059 36.643C59.9859 36.1216 59.3768 35.7097 58.6814 35.4072C57.9833 35.1048 57.2391 34.9521 56.449 34.9521H54.544V46.4373H56.449C57.2391 46.4373 57.9833 46.2875 58.6814 45.9908C59.3796 45.6912 59.9859 45.2822 60.5059 44.7608C61.026 44.2394 61.434 43.6287 61.7328 42.9315C62.0287 42.2344 62.1781 41.4883 62.1781 40.6961Z" fill="black"/>
<path d="M81.9605 50.2715H81.0813L79.6706 48.3069C79.3258 48.618 78.958 48.909 78.5702 49.1826C78.1851 49.4534 77.7772 49.6896 77.3519 49.8913C76.9267 50.0929 76.4871 50.2485 76.0389 50.3666C75.5907 50.4818 75.1338 50.5394 74.6741 50.5394C73.6714 50.5394 72.7261 50.3695 71.844 50.0324C70.9591 49.6954 70.1891 49.2028 69.5254 48.5575C68.8645 47.9122 68.3416 47.1229 67.9595 46.1867C67.5773 45.2505 67.3877 44.1875 67.3877 42.995C67.3877 41.883 67.5773 40.8604 67.9595 39.9299C68.3416 38.9995 68.8645 38.2015 69.5254 37.5332C70.1862 36.8649 70.9591 36.3464 71.844 35.9776C72.729 35.6089 73.6714 35.4246 74.6741 35.4246C75.1367 35.4246 75.5935 35.4822 76.0475 35.5974C76.5015 35.7126 76.9411 35.8739 77.3663 36.0785C77.7915 36.283 78.1995 36.525 78.5845 36.7986C78.9695 37.0752 79.3316 37.3719 79.6706 37.6945L81.0813 35.9978H81.9605V50.2715ZM78.2972 42.9921C78.2972 42.4937 78.2024 42.0098 78.0099 41.5431C77.8203 41.0764 77.5588 40.6616 77.2313 40.3015C76.9037 39.9414 76.5187 39.6505 76.0791 39.4344C75.6395 39.2155 75.1712 39.1061 74.6741 39.1061C74.177 39.1061 73.7087 39.1896 73.2691 39.3596C72.8295 39.5295 72.4474 39.7772 72.1227 40.1085C71.798 40.4369 71.5423 40.846 71.3556 41.3299C71.1688 41.8168 71.0769 42.3698 71.0769 42.9921C71.0769 43.6143 71.1688 44.1703 71.3556 44.6542C71.5423 45.141 71.798 45.5472 72.1227 45.8756C72.4474 46.204 72.8295 46.4546 73.2691 46.6246C73.7087 46.7946 74.177 46.8781 74.6741 46.8781C75.1712 46.8781 75.6395 46.7686 76.0791 46.5497C76.5187 46.3308 76.9037 46.0427 77.2313 45.6826C77.5588 45.3225 77.8203 44.9077 78.0099 44.441C78.2024 43.9744 78.2972 43.4933 78.2972 42.9921Z" fill="black"/>
<path d="M91.8841 50.2713C91.0049 50.2713 90.1803 50.1042 89.4074 49.7701C88.6345 49.4359 87.9565 48.9779 87.3761 48.3931C86.7957 47.8112 86.336 47.1314 86.0027 46.3565C85.6694 45.5816 85.5027 44.7548 85.5027 43.8734V39.6273H83.73V35.9947H85.5027V30.2766H89.1258V35.9919H94.6424V39.6244H89.1258V43.8705C89.1258 44.2536 89.1977 44.6108 89.3385 44.945C89.4792 45.2791 89.6746 45.5701 89.9246 45.8207C90.1717 46.0713 90.4676 46.2672 90.8038 46.4141C91.14 46.561 91.502 46.6359 91.8841 46.6359H94.6424V50.2684H91.8841V50.2713Z" fill="black"/>
<path d="M110.494 50.2715H109.615L108.204 48.3069C107.86 48.618 107.492 48.909 107.107 49.1826C106.722 49.4534 106.314 49.6896 105.889 49.8913C105.463 50.0929 105.024 50.2485 104.575 50.3666C104.127 50.4818 103.67 50.5394 103.211 50.5394C102.208 50.5394 101.263 50.3695 100.381 50.0324C99.4957 49.6954 98.7257 49.2028 98.062 48.5575C97.4011 47.9122 96.8782 47.1229 96.4961 46.1867C96.1139 45.2505 95.9243 44.1875 95.9243 42.995C95.9243 41.883 96.1139 40.8604 96.4961 39.9299C96.8782 38.9995 97.4011 38.2015 98.062 37.5332C98.7228 36.8649 99.4957 36.3464 100.381 35.9776C101.266 35.6089 102.208 35.4246 103.211 35.4246C103.673 35.4246 104.13 35.4822 104.584 35.5974C105.038 35.7126 105.478 35.8739 105.903 36.0785C106.328 36.283 106.736 36.525 107.121 36.7986C107.506 37.0752 107.868 37.3719 108.207 37.6945L109.618 35.9978H110.497L110.494 50.2715ZM106.831 42.9921C106.831 42.4937 106.736 42.0098 106.544 41.5431C106.354 41.0764 106.093 40.6616 105.765 40.3015C105.437 39.9414 105.052 39.6505 104.613 39.4344C104.173 39.2155 103.705 39.1061 103.208 39.1061C102.711 39.1061 102.242 39.1896 101.803 39.3596C101.363 39.5295 100.981 39.7772 100.656 40.1085C100.332 40.4369 100.076 40.846 99.8893 41.3299C99.7026 41.8168 99.6106 42.3698 99.6106 42.9921C99.6106 43.6143 99.7026 44.1703 99.8893 44.6542C100.076 45.141 100.332 45.5472 100.656 45.8756C100.981 46.204 101.363 46.4546 101.803 46.6246C102.242 46.7946 102.711 46.8781 103.208 46.8781C103.705 46.8781 104.173 46.7686 104.613 46.5497C105.052 46.3308 105.437 46.0427 105.765 45.6826C106.093 45.3225 106.354 44.9077 106.544 44.441C106.736 43.9744 106.831 43.4933 106.831 42.9921Z" fill="black"/>
<path d="M129.856 44.5303C129.856 45.3225 129.704 46.0658 129.402 46.76C129.101 47.4542 128.69 48.062 128.17 48.5834C127.65 49.1048 127.043 49.5168 126.351 49.8193C125.659 50.1217 124.917 50.2744 124.127 50.2744H114.577V31.1208H124.127C124.917 31.1208 125.659 31.2735 126.351 31.576C127.043 31.8785 127.65 32.2904 128.17 32.8118C128.69 33.3332 129.101 33.941 129.402 34.6353C129.704 35.3295 129.856 36.0727 129.856 36.8649C129.856 37.2221 129.807 37.5851 129.71 37.9595C129.612 38.334 129.474 38.6941 129.296 39.0427C129.118 39.3912 128.905 39.7052 128.655 39.9904C128.405 40.2756 128.132 40.5118 127.831 40.6991C128.141 40.869 128.42 41.0966 128.67 41.3875C128.92 41.6756 129.132 41.9954 129.31 42.3439C129.489 42.6896 129.624 43.0554 129.716 43.4328C129.81 43.8073 129.856 44.1731 129.856 44.5303ZM118.401 38.7863H124.13C124.397 38.7863 124.644 38.7373 124.877 38.6394C125.107 38.5414 125.311 38.4061 125.483 38.2332C125.656 38.0604 125.791 37.8558 125.888 37.6196C125.986 37.3834 126.035 37.1328 126.035 36.8649C126.035 36.597 125.986 36.3493 125.888 36.1159C125.791 35.8855 125.656 35.6809 125.483 35.5081C125.311 35.3353 125.107 35.1999 124.877 35.1019C124.647 35.004 124.397 34.955 124.13 34.955H118.401V38.7863ZM118.401 46.4402H124.13C124.397 46.4402 124.644 46.3913 124.877 46.2933C125.107 46.1954 125.311 46.06 125.483 45.8871C125.656 45.7143 125.791 45.5098 125.888 45.2793C125.986 45.0489 126.035 44.7983 126.035 44.5303C126.035 44.2624 125.986 44.0147 125.888 43.7814C125.791 43.5509 125.656 43.3464 125.483 43.1736C125.311 43.0007 125.107 42.8653 124.877 42.7674C124.647 42.6694 124.397 42.6205 124.13 42.6205H118.401V46.4402Z" fill="black"/>
<path d="M136.651 32.0802C136.651 32.4172 136.585 32.7341 136.458 33.028C136.329 33.3218 136.154 33.5782 135.933 33.7971C135.711 34.016 135.45 34.1889 135.154 34.3185C134.855 34.4481 134.539 34.5115 134.2 34.5115C133.861 34.5115 133.545 34.4481 133.246 34.3185C132.947 34.1889 132.692 34.016 132.473 33.7971C132.255 33.5782 132.083 33.3218 131.953 33.028C131.824 32.7341 131.761 32.4172 131.761 32.0802C131.761 31.7518 131.824 31.4378 131.953 31.1382C132.083 30.8386 132.255 30.5823 132.473 30.3633C132.692 30.1444 132.947 29.9716 133.246 29.8419C133.545 29.7123 133.861 29.6489 134.2 29.6489C134.536 29.6489 134.855 29.7123 135.154 29.8419C135.453 29.9716 135.711 30.1444 135.933 30.3633C136.154 30.5823 136.329 30.8386 136.458 31.1382C136.585 31.4378 136.651 31.7518 136.651 32.0802ZM136.025 50.2716H132.361V35.9662H136.025V50.2716Z" fill="black"/>
<path d="M142.432 50.2714H138.794V35.9661H139.674L140.872 37.6628C141.458 37.127 142.124 36.7179 142.869 36.427C143.616 36.1389 144.389 35.992 145.187 35.992H148.397V39.6245H145.19C144.808 39.6245 144.449 39.6965 144.11 39.8377C143.774 39.9817 143.478 40.1747 143.231 40.4253C142.981 40.6759 142.785 40.9698 142.645 41.3068C142.504 41.6467 142.432 42.0068 142.432 42.3899V50.2714Z" fill="black"/>
<path d="M163.613 50.2713H162.734L161.323 48.3067C160.976 48.6178 160.611 48.9088 160.226 49.1824C159.838 49.4532 159.433 49.6894 159.008 49.8911C158.582 50.0927 158.143 50.2483 157.695 50.3664C157.246 50.4816 156.79 50.5392 156.33 50.5392C155.327 50.5392 154.382 50.3491 153.5 49.9717C152.615 49.5944 151.842 49.0672 151.181 48.396C150.52 47.7248 149.997 46.9269 149.615 46.005C149.233 45.0832 149.043 44.0808 149.043 42.9948C149.043 41.9174 149.233 40.9149 149.615 39.9902C149.997 39.0655 150.517 38.2618 151.181 37.5877C151.842 36.9108 152.615 36.3807 153.5 35.9976C154.385 35.6145 155.327 35.4244 156.33 35.4244C156.649 35.4244 156.979 35.4503 157.321 35.505C157.663 35.5598 157.996 35.6462 158.321 35.7643C158.646 35.8853 158.95 36.0437 159.235 36.2396C159.519 36.4355 159.758 36.6746 159.953 36.9598V30.2766H163.616V50.2713H163.613ZM159.95 42.9919C159.95 42.4935 159.855 42.0096 159.663 41.5429C159.473 41.0762 159.212 40.6614 158.884 40.3013C158.557 39.9412 158.172 39.6503 157.732 39.4342C157.292 39.2153 156.824 39.1059 156.327 39.1059C155.83 39.1059 155.362 39.1951 154.922 39.3738C154.482 39.5524 154.1 39.8087 153.776 40.1429C153.451 40.477 153.195 40.8832 153.008 41.3643C152.822 41.8454 152.73 42.3898 152.73 42.9948C152.73 43.519 152.822 44.0174 153.008 44.4898C153.195 44.9622 153.451 45.3771 153.776 45.7314C154.1 46.0886 154.482 46.368 154.922 46.5725C155.362 46.7771 155.83 46.8808 156.327 46.8808C156.824 46.8808 157.292 46.7713 157.732 46.5524C158.172 46.3334 158.557 46.0454 158.884 45.6853C159.212 45.3252 159.473 44.9104 159.663 44.4437C159.855 43.9742 159.95 43.4931 159.95 42.9919Z" fill="black"/>
<path d="M0.536395 0.257308C0.691548 0.245785 0.849575 0.228498 1.00473 0.222737C5.70528 0.0354933 10.2851 0.700927 14.7329 2.21616C19.9678 3.99929 24.6396 6.74745 28.7569 10.4664C32.857 14.168 36.0635 18.5179 38.408 23.5072C40.1376 27.1858 41.2611 31.0459 41.8587 35.073C42.2782 37.899 42.373 40.7364 42.2092 43.5681C41.9391 48.2579 40.8703 52.7834 39.0343 57.1159C37.411 60.9501 35.259 64.4645 32.5668 67.6332C29.3574 71.4184 25.5792 74.518 21.232 76.9205C17.5486 78.9571 13.6468 80.36 9.52088 81.1608C6.63619 81.7197 3.72277 81.8839 0.79211 81.7773C0.703041 81.7744 0.616845 81.7485 0.524902 81.6448C1.33227 81.5411 2.14251 81.4345 2.94988 81.3394C7.02694 80.8612 10.9374 79.7868 14.7041 78.1505C18.5628 76.474 22.0652 74.2328 25.2401 71.4847C28.6908 68.5003 31.5152 64.9888 33.7936 61.0394C36.1611 56.9402 37.7385 52.55 38.5315 47.8834C38.7786 46.4315 38.8936 44.9566 39.0171 43.4846C39.1062 42.4274 39.1579 41.3644 39.132 40.3043C39.0027 35.0817 37.977 30.0463 35.9284 25.2298C34.2792 21.3524 32.0668 17.8236 29.3373 14.629C26.3262 11.1059 22.7807 8.21947 18.7754 5.90341C14.6064 3.49229 10.1444 1.86184 5.40646 1.02068C3.80322 0.735496 2.17699 0.562658 0.562255 0.337966C0.556509 0.314921 0.545015 0.286114 0.536395 0.257308Z" fill="#022C82"/>
<path d="M0.541936 4.41144C2.01014 4.41144 3.48696 4.3279 4.94942 4.43161C7.03823 4.57852 9.10406 4.93572 11.1325 5.48017C16.0285 6.79375 20.4589 9.02915 24.4038 12.2238C28.7567 15.7469 32.1672 20.0218 34.5663 25.0946C36.2644 28.6897 37.3447 32.4634 37.8475 36.4156C38.1406 38.7173 38.1952 41.0247 38.063 43.3264C37.8159 47.6013 36.8275 51.7149 35.1409 55.6556C33.6296 59.1844 31.627 62.4137 29.0986 65.2943C26.3231 68.4544 23.131 71.119 19.4447 73.1643C16.2382 74.9445 12.8536 76.2293 9.25921 76.9697C6.44635 77.5516 3.60763 77.7273 0.743059 77.6149C0.676976 77.6121 0.610892 77.5861 0.539062 77.4853C1.26885 77.3874 2.00152 77.2808 2.73131 77.1886C9.93154 76.2639 16.3675 73.5273 21.9214 68.8491C28.6245 63.2087 32.8108 56.0445 34.4198 47.4054C34.8881 44.8819 35.1122 42.3268 34.9915 39.7572C34.6496 32.4951 32.466 25.8609 28.2165 19.9354C24.4326 14.6637 19.5883 10.6827 13.7213 7.95467C10.2505 6.34149 6.60725 5.30157 2.80889 4.82626C2.05898 4.7312 1.30908 4.63038 0.559175 4.53243C0.553428 4.49498 0.547683 4.45177 0.541936 4.41144Z" fill="#084891"/>
<path d="M0.533015 8.59955C0.613465 8.58227 0.693913 8.55346 0.774363 8.55058C4.04118 8.40367 7.25629 8.71766 10.4168 9.59626C14.8616 10.8321 18.8381 12.9522 22.3693 15.9107C25.4235 18.4687 27.9031 21.5107 29.8453 24.9992C31.7733 28.4675 33.0288 32.1634 33.6265 36.0811C34.0258 38.714 34.0546 41.3642 33.8362 44.0202C33.4799 48.3153 32.2646 52.3598 30.2993 56.1738C28.4087 59.8437 25.8918 63.0326 22.7744 65.7491C20.7804 67.489 18.6083 68.961 16.258 70.1536C13.1952 71.7063 9.95709 72.7261 6.54661 73.21C4.66467 73.4779 2.78272 73.4779 0.895036 73.4606C0.782982 73.4606 0.670927 73.4433 0.544506 73.3195C1.17661 73.2244 1.80584 73.1178 2.43794 73.0343C6.43168 72.51 10.2042 71.2886 13.7555 69.3874C16.0195 68.1746 18.1026 66.7026 20.0305 64.9944C23.3605 62.0445 25.9579 58.5532 27.8456 54.5318C29.2879 51.4581 30.2447 48.2346 30.5924 44.8499C30.7418 43.3836 30.8653 41.9029 30.8423 40.4338C30.7849 36.3519 29.9488 32.4169 28.3743 28.649C26.659 24.544 24.1966 20.9432 20.9902 17.8753C16.4649 13.5457 11.1322 10.7111 5.00658 9.42054C3.61308 9.12672 2.19372 8.95388 0.785856 8.72342C0.702533 8.70902 0.616338 8.69174 0.533015 8.67445C0.530142 8.65141 0.533015 8.62548 0.533015 8.59955Z" fill="#1066A0"/>
<path d="M0.383789 69.1745C1.09634 69.0621 1.67673 68.9642 2.25711 68.8778C5.47509 68.4053 8.54941 67.4518 11.4226 65.9222C17.916 62.4683 22.5275 57.3349 25.0703 50.3839C25.9322 48.0275 26.4264 45.5991 26.6103 43.0958C27.1418 35.8538 25.1507 29.3637 20.6714 23.7089C16.1691 18.0225 10.259 14.5743 3.12194 13.2751C2.69096 13.1974 2.26286 13.1138 1.82901 13.0447C1.40377 12.9784 0.972795 12.9323 0.541816 12.7624C0.656743 12.7451 0.77167 12.7163 0.886598 12.7105C4.97803 12.506 8.92005 13.1772 12.6897 14.7932C15.6175 16.0463 18.2493 17.7603 20.6082 19.9122C23.2142 22.2916 25.2829 25.0686 26.8488 28.2171C28.4032 31.3456 29.3485 34.6554 29.676 38.1497C30.1214 42.8826 29.5036 47.4542 27.7194 51.8588C26.4408 55.0131 24.6479 57.8419 22.3465 60.3539C18.982 64.0267 14.9365 66.6193 10.2072 68.1374C7.10132 69.1341 3.9092 69.4683 0.659615 69.2868C0.610771 69.2839 0.570547 69.2523 0.383789 69.1745Z" fill="#1583AF"/>
<path d="M0.524674 17.0171C3.97538 16.6339 7.29967 17.1035 10.4947 18.3825C13.7529 19.6846 16.6031 21.6031 19.0051 24.1669C22.4788 27.8743 24.5963 32.2471 25.3922 37.2768C25.6852 39.1377 25.7312 41.0073 25.6105 42.8711C25.4353 45.6077 24.7601 48.2435 23.6711 50.767C22.2891 53.9731 20.321 56.7674 17.7351 59.1036C14.2241 62.2752 10.1441 64.3176 5.44358 64.96C3.90355 65.1703 2.32042 65.0896 0.757405 65.1386C0.679828 65.1415 0.599379 65.1127 0.513184 64.9773C1.02461 64.888 1.53604 64.7987 2.04747 64.7123C6.57275 63.9374 10.6182 62.1168 14.1293 59.1267C17.4737 56.2806 19.8641 52.7777 21.2979 48.6266C21.9328 46.7888 22.2805 44.8904 22.4644 42.9459C22.7776 39.6447 22.338 36.4443 21.2778 33.336C19.7693 28.9229 17.1547 25.2702 13.5029 22.3665C9.85681 19.4656 5.70505 17.7833 1.10793 17.1611C0.912558 17.1294 0.720052 17.0631 0.524674 17.0171Z" fill="#1583AF"/>
<path d="M0.527001 21.1796C5.17296 20.6467 9.36495 21.8335 13.1231 24.5269C17.4444 27.6265 20.0935 31.8553 21.1307 37.0463C22.0013 41.4019 21.4783 45.6336 19.5906 49.6809C18.6051 51.7982 17.3036 53.6966 15.6601 55.3357C12.7726 58.2134 9.32185 60.06 5.29938 60.7888C3.74785 61.0711 2.17909 61.0048 0.613197 60.9501C0.581592 60.9501 0.549986 60.904 0.435059 60.8118C0.891896 60.7196 1.28265 60.6303 1.67628 60.5612C5.44016 59.8871 8.76445 58.2912 11.6463 55.7764C15.3642 52.5328 17.6081 48.448 18.2345 43.5653C18.9787 37.7636 17.4013 32.5928 13.5713 28.1508C10.2671 24.3195 6.04066 22.1648 1.10451 21.315C0.912009 21.2891 0.719505 21.2286 0.527001 21.1796Z" fill="#1D9FBE"/>
<path d="M0.496094 25.2359C2.4786 24.9824 4.40939 25.1293 6.28271 25.74C11.7159 27.5145 15.2126 31.2219 16.7584 36.6952C18.0628 41.3157 17.3675 45.7404 14.7902 49.7763C12.3624 53.5759 8.89732 55.938 4.41226 56.6899C3.1222 56.9059 1.82064 56.9722 0.496094 56.6783C0.656993 56.6265 0.815019 56.5573 0.978791 56.5228C3.82325 55.9322 6.43212 54.8059 8.65597 52.9133C11.4889 50.5051 13.3508 47.4861 14.0116 43.7873C14.8621 39.0198 13.6927 34.7507 10.6184 31.0519C8.12443 28.0532 4.8576 26.2873 1.06211 25.4951C0.904088 25.4634 0.748934 25.426 0.596655 25.3799C0.562177 25.3713 0.544938 25.3136 0.496094 25.2359Z" fill="#4BAFC1"/>
<path d="M0.527752 29.5221C2.24592 28.9719 3.93536 29.2226 5.52711 29.8361C9.82828 31.4925 12.3509 34.6814 13.0491 39.2242C13.6669 43.2312 12.4659 46.7428 9.60705 49.586C7.48376 51.7004 4.85478 52.795 1.82069 52.7576C1.36672 52.7518 0.912759 52.6568 0.424316 52.4667C0.593835 52.409 0.763353 52.3399 0.935745 52.2938C3.25441 51.6745 5.28289 50.5539 6.96083 48.8111C8.61579 47.0942 9.6013 45.0518 9.99205 42.7127C10.7563 38.1152 8.48937 33.5407 4.4669 31.1296C3.38945 30.4843 2.2488 30.0119 1.04493 29.6777C0.872536 29.6316 0.700143 29.574 0.527752 29.5221Z" fill="#6CC0C8"/>
</svg>
