<?xml version="1.0" encoding="UTF-8"?> <svg xmlns="http://www.w3.org/2000/svg" width="64" height="64" viewBox="0 0 64 64" fill="none"><path d="M43.5559 20C38.5528 20 35.9499 21.988 34.0072 24.2217C34.0222 24.237 34.0372 24.2524 34.0522 24.2754C34.8698 25.2426 36.1749 27.8753 36.6475 28.9576C36.6775 29.0114 36.7 29.0574 36.715 29.1035C37.1651 28.3589 37.7201 27.5299 38.3427 26.724C38.3577 26.701 38.3727 26.6779 38.3952 26.6626C38.5153 26.5167 38.6278 26.3709 38.7478 26.2251C39.5279 25.2733 40.398 24.3752 41.2906 23.7151C42.6108 22.7403 44.396 22.7326 45.7087 23.7304C48.2215 25.6263 50.2693 29.4412 49.2566 34.6914C48.8816 36.6488 48.259 38.1302 47.5164 39.2432C47.2464 39.65 46.9613 40.0031 46.6613 40.3178C46.2862 40.7169 45.8887 41.0547 45.4911 41.3233C44.171 42.2137 42.4383 42.1523 41.1781 41.1698C39.5054 39.8496 36.865 37.2014 34.9073 31.7439C30.7368 20.1458 23.2433 20 21.113 20C16.3949 20 13.117 21.5505 11.0242 23.93L11.0017 23.953C10.8217 24.1603 10.6492 24.3752 10.4917 24.5978C8.71393 26.9619 7.96383 29.9862 8.00134 33.0795C8.07635 39.2125 12.6444 45 20.858 45C25.8611 45 28.3289 42.5821 29.9492 40.6862C29.9492 40.6862 29.9341 40.6632 29.9266 40.6478C28.4415 38.5447 27.6164 36.7716 27.2563 35.8658C26.8438 36.549 26.3637 37.2858 25.8311 37.9997C25.4711 38.4909 25.0885 38.9668 24.691 39.4197C24.1209 40.0722 23.5133 40.6709 22.9057 41.1468C21.6381 42.1369 19.8904 42.1907 18.5702 41.2849C16.6649 39.9724 15.1498 37.7157 14.6697 34.5763C14.0546 30.6156 15.0447 27.6911 16.4924 25.7185C16.6649 25.4728 16.8525 25.2502 17.04 25.0353C17.5276 24.4827 18.0451 24.0221 18.5627 23.6537C19.9579 22.6558 21.8256 22.7403 23.1158 23.8609C24.7135 25.2502 26.8513 27.7449 28.3364 31.483C30.3842 36.6027 34.1872 45 42.8883 44.9463C46.8263 44.9232 50.4643 43.603 52.9021 40.9932C52.9171 40.9932 52.9021 40.9932 52.9021 40.9932C53.2471 40.6248 53.5697 40.2257 53.8622 39.8035C55.2049 37.8846 56 35.4206 56 32.4348C56.0075 24.0605 48.7316 20 43.5559 20Z" fill="#181D4A"></path></svg> 