<svg xmlns="http://www.w3.org/2000/svg" viewBox="0 0 598.2 191.93"><path d="M128,64c0,64-64,128-64,128S0,128,0,64a64,64,0,1,1,128,0Z" fill="#ff7800"/><path d="M205.63,80.25a28.09,28.09,0,0,1-39.1,0c-7.31-7.31-7.11-16.35-7.11-28.84s-.2-21.53,7.11-28.84a28.06,28.06,0,0,1,39.1,0c7.31,7.31,7.21,16.35,7.21,28.84S212.94,72.94,205.63,80.25ZM195.17,31.1a11.72,11.72,0,0,0-9-3.86A11.94,11.94,0,0,0,177,31.1c-2.74,3-3.45,6.4-3.45,20.31s.71,17.26,3.45,20.31a11.94,11.94,0,0,0,9.14,3.86,11.72,11.72,0,0,0,9-3.86c2.74-3,3.55-6.4,3.55-20.31S197.91,34.14,195.17,31.1Z"/><path d="M262.91,87.56,248.79,58.72H238.64V87.56H224.52V15.25h28.34c14.72,0,23.46,10.06,23.46,22.14a19.48,19.48,0,0,1-13.21,19l16.15,31.17Zm-11-59.71h-13.3V46.94h13.3c6.2,0,10.26-4,10.26-9.55S258.14,27.85,251.94,27.85Z"/><path d="M333.9,87.56l-4.26-12.79h-25.7l-4.36,12.79H284.85l26.3-72.31h11.07l26.41,72.31ZM317,36.58l-9.14,26.3h18Z"/><path d="M397.38,87.56,368.74,43.18V87.56H354.62V15.25h12.6l28.64,44.28V15.25H410V87.56Z"/><path d="M468.78,80c-5.79,6-12.7,8.22-20.42,8.22a26.6,26.6,0,0,1-19.49-7.92c-7.32-7.31-7.11-16.35-7.11-28.84s-.21-21.53,7.11-28.84a26.28,26.28,0,0,1,19.49-7.93c16.76,0,25.29,11,27.22,23.16H461.36c-1.62-6.8-5.78-10.56-13-10.56a11.72,11.72,0,0,0-9,3.86c-2.75,3-3.46,6.4-3.46,20.31s.71,17.37,3.46,20.41a11.65,11.65,0,0,0,9,3.76,13.28,13.28,0,0,0,10.06-4.06,14,14,0,0,0,3.25-9.65V59.13H448.36V47.35h27.32V57.91C475.68,68.37,473.86,74.67,468.78,80Z"/><path d="M487.26,87.56V15.25H534.9v12.6H501.38v17h28.54V57.4H501.38V75H534.9V87.56Z"/><path d="M186,177.32a26.63,26.63,0,0,1-19.5-7.92c-7.31-7.31-7.11-16.35-7.11-28.84s-.2-21.53,7.11-28.84a26.64,26.64,0,0,1,19.5-7.93c13.51,0,24.07,7.72,26.61,22.86H198.32c-1.42-5.79-5.08-10.26-12.19-10.26a11.66,11.66,0,0,0-9,3.76c-2.74,3-3.55,6.5-3.55,20.41s.81,17.37,3.55,20.41a11.66,11.66,0,0,0,9,3.76c7.11,0,10.77-4.47,12.19-10.26h14.32C210.1,169.61,199.43,177.32,186,177.32Z"/><path d="M268.48,169.4a28.09,28.09,0,0,1-39.1,0c-7.32-7.31-7.11-16.35-7.11-28.84s-.21-21.53,7.11-28.84a28.06,28.06,0,0,1,39.1,0c7.31,7.31,7.21,16.35,7.21,28.84S275.79,162.09,268.48,169.4ZM258,120.25a11.72,11.72,0,0,0-9-3.86,11.94,11.94,0,0,0-9.14,3.86c-2.75,3-3.46,6.4-3.46,20.31s.71,17.26,3.46,20.31a11.94,11.94,0,0,0,9.14,3.86,11.72,11.72,0,0,0,9-3.86c2.74-3.05,3.55-6.4,3.55-20.31S260.76,123.29,258,120.25Z"/><path d="M327.12,176.71,313,147.87H302.85v28.84H288.73V104.4h28.34c14.72,0,23.45,10.06,23.45,22.14a19.47,19.47,0,0,1-13.2,19l16.15,31.17Zm-11-59.71h-13.3v19.09h13.3c6.2,0,10.26-4,10.26-9.55S322.35,117,316.15,117Z"/><path d="M396.84,176.71,368.2,132.33v44.38H354.09V104.4h12.59l28.64,44.28V104.4h14.12v72.31Z"/><path d="M424.61,176.71V104.4h47.63V117H438.73v17h28.54v12.59H438.73v17.57h33.51v12.59Z"/><path d="M523,176.71l-14.11-28.84H498.68v28.84H484.56V104.4H512.9c14.73,0,23.46,10.06,23.46,22.14a19.49,19.49,0,0,1-13.2,19l16.14,31.17ZM512,117h-13.3v19.09H512c6.2,0,10.26-4,10.26-9.55S518.18,117,512,117Z"/><path d="M571.39,177.32c-11,0-19.3-2.33-26.41-9.54l9.14-9.14c4.57,4.57,10.77,6.09,17.47,6.09,8.33,0,12.8-3.15,12.8-8.94a8,8,0,0,0-2.24-6.09c-1.42-1.32-3-2-6.39-2.54L567,145.94c-6.19-.91-10.76-2.84-14-6-3.46-3.45-5.18-8.12-5.18-14.22,0-12.9,9.54-21.94,25.18-21.94,10,0,17.17,2.44,23.36,8.43l-8.93,8.84c-4.57-4.37-10.06-5-14.83-5-7.52,0-11.17,4.17-11.17,9.14a7,7,0,0,0,2.13,5.18,12.47,12.47,0,0,0,6.7,2.85l8.53,1.22c6.6.91,10.77,2.74,13.82,5.58,3.85,3.66,5.58,8.94,5.58,15.34C598.2,169.4,586.52,177.32,571.39,177.32Z"/><rect x="37.78" y="37.78" width="52.39" height="52.39" transform="translate(-26.5 63.98) rotate(-45)" fill="#fff"/></svg>