<svg xmlns="http://www.w3.org/2000/svg" xmlns:xlink="http://www.w3.org/1999/xlink" viewBox="0 0 423.86 129.96"><defs><style>.cls-1{fill:url(#linear-gradient);}.cls-2{fill:url(#linear-gradient-2);}.cls-3{fill:url(#linear-gradient-3);}.cls-4{fill:url(#linear-gradient-4);}.cls-5{fill:url(#linear-gradient-5);}</style><linearGradient id="linear-gradient" x1="32.51" y1="65.92" x2="8.99" y2="42.39" gradientUnits="userSpaceOnUse"><stop offset="0" stop-color="#26a9e0"/><stop offset="0.47" stop-color="#4768b6"/><stop offset="0.82" stop-color="#5d3d9b"/><stop offset="1" stop-color="#652d90"/></linearGradient><linearGradient id="linear-gradient-2" x1="101.35" y1="118.74" x2="64.57" y2="81.96" gradientUnits="userSpaceOnUse"><stop offset="0" stop-color="#ec1c24"/><stop offset="0.22" stop-color="#ec1f25"/><stop offset="0.38" stop-color="#ed2926"/><stop offset="0.53" stop-color="#ef3929"/><stop offset="0.66" stop-color="#f1502e"/><stop offset="0.79" stop-color="#f46d33"/><stop offset="0.91" stop-color="#f7913a"/><stop offset="1" stop-color="#faaf40"/></linearGradient><linearGradient id="linear-gradient-3" x1="53.54" y1="53.55" x2="-0.9" y2="-0.89" xlink:href="#linear-gradient"/><linearGradient id="linear-gradient-4" x1="80.42" y1="90.19" x2="117.09" y2="126.86" gradientUnits="userSpaceOnUse"><stop offset="0" stop-color="#faaf40"/><stop offset="0.03" stop-color="#f9a23e"/><stop offset="0.11" stop-color="#f57f37"/><stop offset="0.2" stop-color="#f26031"/><stop offset="0.3" stop-color="#f0472c"/><stop offset="0.41" stop-color="#ee3429"/><stop offset="0.54" stop-color="#ed2626"/><stop offset="0.7" stop-color="#ec1e24"/><stop offset="1" stop-color="#ec1c24"/></linearGradient><linearGradient id="linear-gradient-5" x1="50.55" y1="68.79" x2="-1.53" y2="16.71" gradientUnits="userSpaceOnUse"><stop offset="0" stop-color="#37b34a"/><stop offset="0.01" stop-color="#36b350"/><stop offset="0.07" stop-color="#31b07b"/><stop offset="0.14" stop-color="#2dada0"/><stop offset="0.2" stop-color="#2aabbc"/><stop offset="0.27" stop-color="#28aad0"/><stop offset="0.34" stop-color="#26a9dc"/><stop offset="0.4" stop-color="#26a9e0"/><stop offset="0.49" stop-color="#29a4dd"/><stop offset="0.59" stop-color="#3095d3"/><stop offset="0.7" stop-color="#3d7bc3"/><stop offset="0.83" stop-color="#4f58ac"/><stop offset="0.95" stop-color="#652d90"/></linearGradient></defs><g id="Layer_2" data-name="Layer 2"><g id="Layer_1-2" data-name="Layer 1"><path class="cls-1" d="M15.75,79.87a3.37,3.37,0,0,0,0,4.82,3.28,3.28,0,0,0,2.17.83c1.72,0,2.36-1,4.1-2.75l29.1-29.06a3.37,3.37,0,0,0,1-2.75A3.25,3.25,0,0,0,48.9,48.1H3.42A3.37,3.37,0,0,0,0,51.17a3.25,3.25,0,0,0,3.24,3.41H36.75A1.79,1.79,0,0,1,38,57.63Z"/><path class="cls-2" d="M110.13,33.44a4.62,4.62,0,0,0-6.54,0L74.76,62.26h0L16.2,120.83a4.8,4.8,0,0,0,0,6.81,4.62,4.62,0,0,0,6.42-.12L73.41,76.7v47.47a4.75,4.75,0,0,0,4.17,4.8,4.63,4.63,0,0,0,5.08-4.6V71.57a9.92,9.92,0,0,1,2.91-7L110.13,40A4.62,4.62,0,0,0,110.13,33.44Z"/><path class="cls-3" d="M20.36,25a3.24,3.24,0,0,0,4.58-4.58L5.53,1A3.24,3.24,0,0,0,1,5.54Z"/><path class="cls-4" d="M92.91,76.36a3.24,3.24,0,0,0-3.24,3.24v46.16a3.24,3.24,0,0,0,6.48,0V79.6A3.24,3.24,0,0,0,92.91,76.36Z"/><path class="cls-5" d="M85.75,41.67a5.62,5.62,0,0,0-4-9.59H60.68a4.84,4.84,0,0,1-3.42-1.42L28,1.35a4.62,4.62,0,0,0-6.82.31,4.78,4.78,0,0,0,.44,6.4L45.52,32a.05.05,0,0,1,0,.08H19.62a4.79,4.79,0,0,0-4.84,4.21,4.62,4.62,0,0,0,4.6,5H64.85a3.37,3.37,0,0,1,2.37,5.76l-51.1,51a4.62,4.62,0,1,0,6.53,6.55Z"/><path d="M155.58,54.88a12.55,12.55,0,0,1-8.16-3.32l-3.55,4.26a17.36,17.36,0,0,0,11.59,4.37c5.9,0,10-3,10-8.47v-.08c0-4.76-3.13-6.75-8.67-8.2-4.72-1.21-5.9-1.79-5.9-3.59v-.08c0-1.32,1.22-2.38,3.52-2.38a12.82,12.82,0,0,1,7.1,2.7l3.13-4.53a15.82,15.82,0,0,0-10.15-3.48c-5.59,0-9.57,3.28-9.57,8.24v.08c0,5.42,3.55,7,9.06,8.35,4.57,1.17,5.5,2,5.5,3.48v.07C159.52,53.9,158,54.88,155.58,54.88Z"/><polygon points="176.5 59.8 182.51 59.8 182.51 38.02 190.83 38.02 190.83 32.47 168.19 32.47 168.19 38.02 176.5 38.02 176.5 59.8"/><path d="M195.7,59.8l2.5-6.13h11.56l2.5,6.13h6.28L206.83,32.28h-5.55L189.57,59.8ZM204,39.5l3.63,8.86h-7.26Z"/><path d="M228.76,51.06h4.73l5.85,8.74h7L239.69,50a8.48,8.48,0,0,0,5.86-8.47v-.08a8.6,8.6,0,0,0-2.34-6.25c-1.8-1.79-4.49-2.77-8-2.77H222.75V59.8h6Zm0-13.16h6c2.93,0,4.73,1.33,4.73,3.9v.08c0,2.3-1.68,3.87-4.61,3.87h-6.09Z"/><polygon points="257.33 59.8 263.34 59.8 263.34 38.02 271.66 38.02 271.66 32.47 249.02 32.47 249.02 38.02 257.33 38.02 257.33 59.8"/><path d="M287.66,60.23c7.34,0,12-4.06,12-12.34V32.47h-6V48.13c0,4.33-2.22,6.56-5.89,6.56s-5.9-2.31-5.9-6.76V32.47h-6V48.09C275.83,56.13,280.32,60.23,287.66,60.23Z"/><path d="M311.78,51.6h4.57c6.13,0,11-3.28,11-9.6v-.08c0-5.58-3.94-9.45-10.46-9.45H305.77V59.8h6Zm0-13.7h4.65c3,0,4.88,1.44,4.88,4.14v.08c0,2.34-1.76,4.13-4.77,4.13h-4.76Z"/><path d="M162.32,79.32a7.33,7.33,0,0,0,3.05-6.23A7.06,7.06,0,0,0,163.32,68c-1.81-1.76-4.51-2.69-7.82-2.69H142.91V94.59H156c6.61,0,10.88-3.31,10.88-8.5C166.89,83,165.35,80.75,162.32,79.32Zm-14.44-1.8V70h7.35c1.53,0,5.09.34,5.09,3.57,0,3.54-3.72,3.92-5.32,3.92Zm14,8.45c0,2.46-2.15,3.92-5.75,3.92h-8.21V82.18h7.66C158.41,82.18,161.84,82.82,161.84,86Z"/><path d="M193.56,94.59H199L185.67,65.14h-4.13L168.21,94.59h5.28l3.24-7.22h13.62Zm-5.27-11.92H178.8l4.76-10.62Z"/><polygon points="226.96 94.59 226.96 65.34 222.03 65.34 222.03 85.42 206.24 65.34 201.92 65.34 201.92 94.59 206.85 94.59 206.85 74 223.07 94.59 226.96 94.59"/><path d="M258.34,90.35V78.06H245.13v4.7h8.31v5.36a12,12,0,0,1-6.92,2.24c-5.89,0-9.85-4.18-9.85-10.48,0-5.74,4.14-10.24,9.42-10.24a10.67,10.67,0,0,1,7.68,2.89l.74.64,3.25-3.82-.74-.62a15.31,15.31,0,0,0-10.81-3.86A14.73,14.73,0,0,0,231.54,80V80c0,8.84,6.12,15,14.86,15A17.51,17.51,0,0,0,258,90.64Z"/><polygon points="263.35 65.34 263.35 94.59 283.74 94.59 283.74 89.81 268.36 89.81 268.36 65.34 263.35 65.34"/><path d="M284.64,94.59h5.28l3.24-7.22h13.62l3.2,7.22h5.44L302.1,65.14H298Zm10.59-11.92L300,72.05l4.73,10.62Z"/><path d="M328.8,65.34H318.35V94.59H328.8c9,0,15.48-6.15,15.48-14.71S337.77,65.34,328.8,65.34Zm0,24.47h-5.44V70.11h5.44c6.1,0,10.36,4,10.36,9.93S334.9,89.81,328.8,89.81Z"/><polygon points="353.88 82.21 368.79 82.21 368.79 77.48 353.88 77.48 353.88 70.07 370.55 70.07 370.55 65.34 348.87 65.34 348.87 94.59 370.74 94.59 370.74 89.85 353.88 89.85 353.88 82.21"/><path d="M386,77.54c-6.18-1.33-6.65-2.65-6.65-4.45,0-2,2-3.45,4.85-3.45a11.08,11.08,0,0,1,7.28,2.75l.77.64,3-3.93-.72-.58A15.33,15.33,0,0,0,384.26,65c-5.76,0-9.94,3.54-9.94,8.49,0,5.86,4.77,7.71,9.93,8.83,5.88,1.24,6.35,2.6,6.35,4.33,0,2.2-2.07,3.68-5.13,3.68-3.36,0-5.88-1-8.73-3.61L376,86l-3.16,3.74.7.62A16.85,16.85,0,0,0,385.35,95c6.06,0,10.29-3.57,10.29-8.77C395.64,80.39,390.48,78.52,386,77.54Z"/><polygon points="418.85 65.34 418.85 77.48 405.01 77.48 405.01 65.34 400 65.34 400 94.59 405.01 94.59 405.01 82.29 418.85 82.29 418.85 94.59 423.87 94.59 423.87 65.34 418.85 65.34"/><polygon points="147.87 100.7 142.87 100.7 142.87 129.96 163.25 129.96 163.25 125.18 147.87 125.18 147.87 100.7"/><rect x="167.3" y="100.7" width="5.01" height="29.25"/><polygon points="192.42 114.84 182.99 100.7 178.38 100.7 178.38 129.96 183.31 129.96 183.31 110.02 191.51 122.04 191.95 122.46 192.97 122.46 201.45 109.99 201.45 129.96 206.46 129.96 206.46 100.7 201.86 100.7 192.42 114.84"/><rect x="212.53" y="100.7" width="5.01" height="29.25"/><polygon points="221.66 105.48 230.84 105.48 230.84 129.96 235.89 129.96 235.89 105.48 245.06 105.48 245.06 100.7 221.66 100.7 221.66 105.48"/><polygon points="253.92 117.58 268.83 117.58 268.83 112.84 253.92 112.84 253.92 105.44 270.59 105.44 270.59 100.7 248.91 100.7 248.91 129.96 270.79 129.96 270.79 125.22 253.92 125.22 253.92 117.58"/><path d="M285.51,100.7H275.06V130h10.45c9,0,15.49-6.16,15.49-14.71S294.49,100.7,285.51,100.7Zm10.36,14.71c0,5.75-4.26,9.77-10.36,9.77h-5.44v-19.7h5.44C291.61,105.48,295.87,109.53,295.87,115.41Z"/><polygon points="319.51 106.67 315.85 101.19 313.88 101.19 313.88 112.91 316.02 112.91 316.02 105.29 319.07 109.75 319.27 109.96 319.78 109.96 322.97 105.28 322.97 112.91 325.14 112.91 325.14 101.19 323.18 101.19 319.51 106.67"/><polygon points="303.44 103.27 307.06 103.27 307.06 112.91 309.25 112.91 309.25 103.27 312.86 103.27 312.86 101.19 303.44 101.19 303.44 103.27"/></g></g></svg>